<svg width="26px" height="16px" viewBox="0 0 26 16" version="1.1" xmlns="http://www.w3.org/2000/svg" xmlns:xlink="http://www.w3.org/1999/xlink">
    <g stroke="none" stroke-width="1" fill="none" fill-rule="evenodd">
        <g transform="translate(-839.000000, -879.000000)" fill="currentColor" fill-rule="nonzero">
            <g transform="translate(839.000000, 876.000000)">
                <path d="M22.9562741,5.13333334 L15.6520049,5.13333334 L15.6520049,3 L22.9562741,3 L22.9562741,5.13333334 Z M24.7572981,15.8 C24.2960856,17.1834666 22.6401037,19 19.4345727,19 C16.2269552,19 13.6287224,17.1557334 13.6287224,12.9466666 C13.6287224,8.776 16.0547832,6.632 19.332313,6.632 C22.5482783,6.632 24.5120828,8.5328 24.9409482,11.3530666 C25.0223388,11.8928 25.0546859,12.6202666 25.0400772,13.6357334 L16.6641679,13.6357334 C16.7998186,17.0608 20.2985634,17.1685334 21.4515944,15.8 L24.7572981,15.8 Z M16.7372106,11.5333334 L21.9180243,11.5333334 C21.8084598,9.8832 20.7326457,9.1664 19.3333565,9.1664 C17.8036338,9.1664 16.9573821,9.9856 16.7372106,11.5333334 Z M6.7470576,18.9872 L8.8817842e-15,18.9872 L8.8817842e-15,3.0224 L7.25522602,3.0224 C12.9692513,3.1088 13.0777718,8.82933336 10.0934562,10.3888 C13.7048955,11.7328 13.8259377,18.9872 6.7470576,18.9872 Z M3.13040097,9.4 L6.87018664,9.4 C9.48720188,9.4 9.90250177,6.2 6.54462497,6.2 L3.13040097,6.2 L3.13040097,9.4 Z M6.66879757,12.6 L3.13040097,12.6 L3.13040097,15.8170666 L6.61662421,15.8170666 C9.80441586,15.8170666 9.60928751,12.6 6.66879757,12.6 Z"></path>
            </g>
        </g>
    </g>
</svg>