<svg xmlns="http://www.w3.org/2000/svg" width="300" height="300" viewBox="0 0 300 300">
  <path fill="#798291" d="M993.447194,2775.95533 C995.936632,2778.21914 1004.6723,2793.02445 1004.6723,2793.38666 C1004.35546,2803.70963 1034.59083,2822.04648 1051.2927,2831.23755 C1040.56548,2859.80682 1013.3627,2880 981,2880 C948.365721,2880 920.52927,2859.26351 910.254677,2830.10564 C914.328304,2832.32418 925.91551,2841.10776 928.540736,2842.60187 C932.071213,2844.6393 928.721786,2828.24932 928.540736,2822.40869 C929.898612,2823.04256 931.573325,2823.22366 933.066989,2822.81618 C938.498491,2826.70993 945.016295,2829.92454 948.999396,2833.81829 C952.348823,2837.21401 944.111044,2819.42046 942.979481,2816.61334 C942.028968,2813.94205 955.69825,2797.32569 956.2414,2793.61304 C957.056126,2789.62874 957.056126,2792.30003 958.278214,2794.56384 C959.590827,2797.32569 960.405552,2800.31391 962.261316,2802.75883 C969.865419,2813.44401 1008.06699,2844.45819 1018.20579,2842.78298 C1020.42366,2842.42077 994.080869,2820.14488 991.274593,2818.10746 C991.093543,2817.92635 991.093543,2817.74525 990.912492,2817.51887 C997.973446,2819.78267 1004.6723,2822.40869 1012.18588,2823.5406 C1015.58057,2823.90281 1017.75317,2819.42046 1014.40374,2817.51887 C1009.7417,2815.11923 1004.85335,2812.67431 999.648159,2810.99909 C996.79662,2809.32388 993.809294,2807.46755 991.22933,2805.56595 C988.242004,2803.70963 986.02414,2801.08361 983.987326,2798.27649 C984.168377,2797.91428 984.168377,2797.50679 984.349427,2797.14458 C987.110441,2793.79414 988.785154,2790.21733 989.554617,2785.73498 C989.735667,2785.73498 989.735667,2785.5086 989.735667,2785.5086 C991.093543,2782.52037 992.134581,2779.35104 993.266144,2776.13643 C993.266144,2776.13643 993.447194,2776.13643 993.447194,2775.95533 Z M1022.64152,2795.83157 C1023.09415,2795.28826 1026.44357,2795.28826 1027.16777,2795.65047 C1031.01509,2797.91428 1035.17924,2796.96348 1039.07182,2799.18201 C1045.09173,2802.75883 1049.79903,2809.14277 1055.6379,2812.90069 C1055.18527,2817.11138 1054.46107,2821.32206 1053.32951,2825.39692 C1046.76645,2819.60157 1040.74653,2813.57984 1034.40978,2807.64866 C1030.69825,2803.89073 1026.44357,2799.95171 1022.64152,2795.83157 Z M981.045263,2730 C1022.50573,2730 1056,2763.68548 1056,2805.02264 L1056,2805.02264 L1056,2808.41835 C1052.65057,2805.74706 1049.43693,2802.93993 1046.26856,2800.13281 C1041.24442,2795.65047 1025.85516,2778.58135 1025.85516,2778.58135 C1025.85516,2778.58135 1013.58902,2784.01449 1012.95534,2784.01449 L1012.95534,2784.01449 L993.492456,2762.3272 C993.492456,2762.3272 976.835848,2778.98883 971.811708,2786.86689 C969.322269,2788.1799 966.923355,2789.44763 964.298129,2790.57954 C961.899215,2787.4102 954.204587,2777.81165 954.204587,2777.81165 C954.204587,2777.81165 941.304768,2791.53034 936.778515,2796.37489 C934.153289,2799.18201 925.055522,2799.72532 922.566083,2802.53245 C921.162945,2802.17024 912.291491,2816.25113 907.493663,2820.19016 C906.54315,2815.34561 906,2810.27468 906,2805.02264 C906,2763.68548 939.675317,2730 981.045263,2730 Z" transform="translate(-831 -2677)"/>
</svg>
